<svg xmlns="http://www.w3.org/2000/svg" width="48" height="48" viewBox="200 50 440 120">
  <style>
    .crown { fill: #E62129; }
  </style>
  <path class="crown" d="M220.41 67.57l60.64 102.06c44.9,-11.88 91.65,-17.64 138.05,-17.64 46.4,0 93.15,5.76 138.05,17.64l60.64 -102.06c-19.66,4.38 -29.17,11.98 -35.76,20.35 -3.03,-1.91 -6.64,-3.02 -10.52,-3.02 -10.7,0 -19.38,8.44 -19.38,18.84 0,6.62 3.53,12.45 8.85,15.81 -4.92,5.97 -10.63,9.61 -20.61,9.61 -19.09,0 -25.08,-16.86 -26.43,-34.74 0.44,0.03 0.89,0.05 1.33,0.05 10.7,0 19.37,-8.44 19.37,-18.84 0,-10.4 -8.67,-18.84 -19.37,-18.84 -10.7,0 -19.37,8.44 -19.37,18.84 0,8.48 5.76,15.65 13.69,18.01 -9.4,15.08 -22.89,23.24 -39.2,23.24 -15.49,0 -33.5,-6.39 -35.16,-25.92 1.05,0.14 2.12,0.21 3.2,0.21 13.01,0 23.56,-10.26 23.56,-22.9 0,-12.27 -9.93,-22.29 -22.39,-22.88 -0.14,-30.31 -20.5,-44.01 -20.5,-44.01 0,0 -20.36,13.7 -20.5,44.01 -12.46,0.59 -22.39,10.61 -22.39,22.88 0,12.64 10.55,22.9 23.56,22.9 1.08,0 2.15,-0.07 3.19,-0.21 -1.65,19.53 -19.66,25.92 -35.15,25.92 -16.32,0 -29.81,-8.16 -39.2,-23.24 7.93,-2.36 13.69,-9.53 13.69,-18.01 0,-10.4 -8.68,-18.84 -19.37,-18.84 -10.7,0 -19.38,8.44 -19.38,18.84 0,10.4 8.68,18.84 19.38,18.84 0.44,0 0.88,-0.02 1.33,-0.05 -1.36,17.88 -7.34,34.74 -26.44,34.74 -9.97,0 -15.68,-3.64 -20.6,-9.61 5.32,-3.36 8.85,-9.19 8.85,-15.81 0,-10.4 -8.68,-18.84 -19.37,-18.84 -3.89,0 -7.5,1.11 -10.53,3.02 -6.6,-8.37 -16.1,-15.97 -35.76,-20.35z"/>
</svg>