<svg xmlns="http://www.w3.org/2000/svg" xml:space="preserve" width="100%" height="auto" viewBox="0 0 839 531.76"
 xmlns:xlink="http://www.w3.org/1999/xlink"
 xmlns:xodm="http://www.corel.com/coreldraw/odm/2003">
 <defs>
  <style type="text/css">
   <![CDATA[
    .fil2 {fill:#332C2B}
    .fil0 {fill:#E62129}
    .fil4 {fill:#E62129}
    .fil3 {fill:#009B4C}
    .fil1 {fill:#332C2B;fill-rule:nonzero}
    .fnt0 {font-weight:bold;font-size:100.17px;font-family:'Arial'}
   ]]>
  </style>
 </defs>
 <title>logo</title>
 <g id="logo">
  <metadata id="CorelCorpID_0Corel-Layer"/>
  <path class="fil0" d="M220.41 67.57l60.64 102.06c44.9,-11.88 91.65,-17.64 138.05,-17.64 46.4,0 93.15,5.76 138.05,17.64l60.64 -102.06c-19.66,4.38 -29.17,11.98 -35.76,20.35 -3.03,-1.91 -6.64,-3.02 -10.52,-3.02 -10.7,0 -19.38,8.44 -19.38,18.84 0,6.62 3.53,12.45 8.85,15.81 -4.92,5.97 -10.63,9.61 -20.61,9.61 -19.09,0 -25.08,-16.86 -26.43,-34.74 0.44,0.03 0.89,0.05 1.33,0.05 10.7,0 19.37,-8.44 19.37,-18.84 0,-10.4 -8.67,-18.84 -19.37,-18.84 -10.7,0 -19.37,8.44 -19.37,18.84 0,8.48 5.76,15.65 13.69,18.01 -9.4,15.08 -22.89,23.24 -39.2,23.24 -15.49,0 -33.5,-6.39 -35.16,-25.92 1.05,0.14 2.12,0.21 3.2,0.21 13.01,0 23.56,-10.26 23.56,-22.9 0,-12.27 -9.93,-22.29 -22.39,-22.88 -0.14,-30.31 -20.5,-44.01 -20.5,-44.01 0,0 -20.36,13.7 -20.5,44.01 -12.46,0.59 -22.39,10.61 -22.39,22.88 0,12.64 10.55,22.9 23.56,22.9 1.08,0 2.15,-0.07 3.19,-0.21 -1.65,19.53 -19.66,25.92 -35.15,25.92 -16.32,0 -29.81,-8.16 -39.2,-23.24 7.93,-2.36 13.69,-9.53 13.69,-18.01 0,-10.4 -8.68,-18.84 -19.37,-18.84 -10.7,0 -19.38,8.44 -19.38,18.84 0,10.4 8.68,18.84 19.38,18.84 0.44,0 0.88,-0.02 1.33,-0.05 -1.36,17.88 -7.34,34.74 -26.44,34.74 -9.97,0 -15.68,-3.64 -20.6,-9.61 5.32,-3.36 8.85,-9.19 8.85,-15.81 0,-10.4 -8.68,-18.84 -19.37,-18.84 -3.89,0 -7.5,1.11 -10.53,3.02 -6.6,-8.37 -16.1,-15.97 -35.76,-20.35z"/>
  <polygon class="fil1" points="0.66,272.74 837.54,272.74 837.54,278.58 0.66,278.58 "/>
  <path class="fil1" d="M421.05 261.01l0 0c7.98,-36.38 52.67,-27.52 52.67,-27.52 0,0 -14.37,-3.97 -20.43,-11.31 -32.24,10.4 -32.24,38.83 -32.24,38.83zm5.02 -50.7c-5.08,-4.86 -6.97,-13.78 -6.97,-13.78 0,0 -1.89,8.92 -6.98,13.78 5.09,4.86 6.98,13.78 6.98,13.78 0,0 1.89,-8.92 6.97,-13.78zm-110.08 51.93l0 0c0.44,0 68.93,0 68.93,0 6.13,0 11.13,-3.29 11.13,-7.32 0,-3.39 -3.99,-6.04 -9.1,-6.04 -4.19,0 -7.46,2.2 -7.46,5.01 0,2.36 2.69,4.2 6.17,4.2 0.52,0 0.95,-0.41 0.95,-0.91 0,-0.51 -0.43,-0.93 -0.95,-0.93 -2.27,0 -4.26,-1.1 -4.26,-2.36 0,-1.72 2.54,-3.18 5.55,-3.18 3.9,0 7.19,1.93 7.19,4.21 0,2.97 -4.22,5.48 -9.22,5.48 -6.48,0 -11.76,-3.17 -11.76,-7.08 0,-5.02 6.7,-9.1 14.94,-9.1 12.62,0 20.56,5.36 25.16,17.29 0.15,0.37 0.5,0.6 0.9,0.6 0.12,0 0.21,-0.02 0.32,-0.06 0.51,-0.18 0.76,-0.7 0.57,-1.18 -4.9,-12.74 -13.42,-18.48 -26.95,-18.48 -0.22,0 -0.42,0.04 -0.64,0.05 -7.36,-0.08 -19.61,4.51 -34.69,10.84 -11.84,4.96 -25.66,6.91 -31.34,7.53l-4.19 0c-3.98,0.03 -10.62,0.07 -13.52,-2.63 -0.14,-0.13 -0.25,-0.26 -0.36,-0.38 -1.89,-2.5 -0.46,-4.93 1.09,-4.91 1.11,0.01 2,0.77 2,1.72 0,0.25 -0.06,0.48 -0.17,0.69 2.27,-0.5 3.94,-2.25 3.94,-4.37 0,-2.48 -2.33,-4.5 -5.18,-4.5 -1.79,0 -3.36,0.75 -4.23,1.92 -0.7,0.86 -1.17,2.17 -1.25,3.6 -0.1,1.53 0.23,4.46 3.12,7.24 2.79,2.69 8.54,3.05 13.31,3.05zm101.17 -1.23l0 0c0,0 0,-28.43 -32.25,-38.83 -6.07,7.34 -20.44,11.31 -20.44,11.31 0,0 44.7,-8.86 52.69,27.52zm32.94 -18.62l0 0c-13.54,0 -22.05,5.74 -26.97,18.48 -0.18,0.48 0.08,1 0.58,1.18 0.1,0.04 0.21,0.06 0.33,0.06 0.39,0 0.75,-0.23 0.9,-0.6 4.58,-11.93 12.53,-17.29 25.16,-17.29 8.23,0 14.94,4.08 14.94,9.1 0,3.91 -5.28,7.08 -11.76,7.08 -5,0 -9.22,-2.51 -9.22,-5.48 0,-2.28 3.29,-4.21 7.19,-4.21 3.01,0 5.55,1.46 5.55,3.18 0,1.26 -1.99,2.36 -4.26,2.36 -0.52,0 -0.95,0.42 -0.95,0.93 0,0.5 0.43,0.91 0.95,0.91 3.46,0 6.17,-1.84 6.17,-4.2 0,-2.81 -3.27,-5.01 -7.46,-5.01 -5.11,0 -9.1,2.65 -9.1,6.04 0,4.03 4.99,7.32 11.13,7.32 0,0 68.48,0 68.93,0 4.76,0 10.52,-0.36 13.31,-3.05 2.88,-2.78 3.21,-5.71 3.12,-7.24 -0.08,-1.43 -0.55,-2.74 -1.25,-3.6 -0.89,-1.17 -2.44,-1.92 -4.23,-1.92 -2.85,0 -5.17,2.02 -5.17,4.5 0,2.12 1.66,3.87 3.91,4.37 -0.09,-0.21 -0.16,-0.44 -0.16,-0.69 0,-0.95 0.89,-1.71 2,-1.72 1.57,-0.02 2.99,2.41 1.09,4.91 -0.12,0.12 -0.22,0.25 -0.35,0.38 -2.9,2.7 -9.55,2.66 -13.52,2.63l-4.2 0c-5.67,-0.62 -19.48,-2.57 -31.33,-7.53 -15.1,-6.33 -27.34,-10.92 -34.69,-10.84 -0.22,-0.01 -0.43,-0.05 -0.64,-0.05zm-31 18.46l0 0c1.89,-39.01 26.5,-42.5 26.5,-42.5 0,0 -6.71,-1.22 -13.41,-4.89 -9.26,5.8 -13.09,25.38 -13.09,25.38 0,0 -3.83,-19.58 -13.1,-25.38 -6.69,3.67 -13.41,4.89 -13.41,4.89 0,0 24.62,3.49 26.51,42.5z"/>
  <polygon class="fil1" points="119.24,448.34 718.96,448.34 718.96,454.17 119.24,454.17 "/>
  <path class="fil1" d="M421.05 465.9l0 0c7.98,36.39 52.67,27.52 52.67,27.52 0,0 -14.37,3.97 -20.43,11.31 -32.24,-10.39 -32.24,-38.83 -32.24,-38.83zm5.02 50.7c-5.08,4.87 -6.97,13.79 -6.97,13.79 0,0 -1.89,-8.92 -6.98,-13.79 5.09,-4.86 6.98,-13.77 6.98,-13.77 0,0 1.89,8.91 6.97,13.77zm-110.08 -51.92l0 0c0.44,0 68.93,0 68.93,0 6.13,0 11.13,3.28 11.13,7.32 0,3.39 -3.99,6.04 -9.1,6.04 -4.19,0 -7.46,-2.2 -7.46,-5.01 0,-2.36 2.69,-4.21 6.17,-4.21 0.52,0 0.95,0.42 0.95,0.92 0,0.51 -0.43,0.92 -0.95,0.92 -2.27,0 -4.26,1.1 -4.26,2.37 0,1.72 2.54,3.18 5.55,3.18 3.9,0 7.19,-1.93 7.19,-4.21 0,-2.97 -4.22,-5.49 -9.22,-5.49 -6.48,0 -11.76,3.18 -11.76,7.09 0,5.01 6.7,9.09 14.94,9.09 12.62,0 20.56,-5.36 25.16,-17.29 0.15,-0.37 0.5,-0.59 0.9,-0.59 0.12,0 0.21,0.02 0.32,0.06 0.51,0.17 0.76,0.7 0.57,1.18 -4.9,12.73 -13.42,18.47 -26.95,18.47 -0.22,0 -0.42,-0.03 -0.64,-0.04 -7.36,0.08 -19.61,-4.52 -34.69,-10.85 -11.84,-4.96 -25.66,-6.9 -31.34,-7.53l-4.19 0c-3.98,-0.02 -10.62,-0.07 -13.52,2.64 -0.14,0.13 -0.25,0.25 -0.36,0.38 -1.89,2.5 -0.46,4.93 1.09,4.91 1.11,-0.01 2,-0.77 2,-1.73 0,-0.24 -0.06,-0.47 -0.17,-0.68 2.27,0.49 3.94,2.24 3.94,4.36 0,2.49 -2.33,4.51 -5.18,4.51 -1.79,0 -3.36,-0.75 -4.23,-1.92 -0.7,-0.86 -1.17,-2.17 -1.25,-3.6 -0.1,-1.53 0.23,-4.47 3.12,-7.25 2.79,-2.69 8.54,-3.04 13.31,-3.04zm101.17 1.22l0 0c0,0 0,28.44 -32.25,38.83 -6.07,-7.34 -20.44,-11.31 -20.44,-11.31 0,0 44.7,8.87 52.69,-27.52zm32.94 18.62l0 0c-13.54,0 -22.05,-5.74 -26.97,-18.47 -0.18,-0.48 0.08,-1.01 0.58,-1.18 0.1,-0.04 0.21,-0.06 0.33,-0.06 0.39,0 0.75,0.22 0.9,0.59 4.58,11.93 12.53,17.29 25.16,17.29 8.23,0 14.94,-4.08 14.94,-9.09 0,-3.91 -5.28,-7.09 -11.76,-7.09 -5,0 -9.22,2.52 -9.22,5.49 0,2.28 3.29,4.21 7.19,4.21 3.01,0 5.55,-1.46 5.55,-3.18 0,-1.27 -1.99,-2.37 -4.26,-2.37 -0.52,0 -0.95,-0.41 -0.95,-0.92 0,-0.5 0.43,-0.92 0.95,-0.92 3.46,0 6.17,1.85 6.17,4.21 0,2.81 -3.27,5.01 -7.46,5.01 -5.11,0 -9.1,-2.65 -9.1,-6.04 0,-4.04 4.99,-7.32 11.13,-7.32 0,0 68.48,0 68.93,0 4.76,0 10.52,0.35 13.31,3.04 2.88,2.78 3.21,5.72 3.12,7.25 -0.08,1.43 -0.55,2.74 -1.25,3.6 -0.89,1.17 -2.44,1.92 -4.23,1.92 -2.85,0 -5.17,-2.02 -5.17,-4.51 0,-2.12 1.66,-3.87 3.91,-4.36 -0.09,0.21 -0.16,0.44 -0.16,0.68 0,0.96 0.89,1.72 2,1.73 1.57,0.02 2.99,-2.41 1.09,-4.91 -0.12,-0.13 -0.22,-0.25 -0.35,-0.38 -2.9,-2.71 -9.55,-2.66 -13.52,-2.64l-4.2 0c-5.67,0.63 -19.48,2.57 -31.33,7.53 -15.1,6.33 -27.34,10.93 -34.69,10.85 -0.22,0.01 -0.43,0.04 -0.64,0.04zm-31 -18.45l0 0c1.89,39.01 26.5,42.49 26.5,42.49 0,0 -6.71,1.22 -13.41,4.9 -9.26,-5.81 -13.09,-25.38 -13.09,-25.38 0,0 -3.83,19.57 -13.1,25.38 -6.69,-3.68 -13.41,-4.9 -13.41,-4.9 0,0 24.62,-3.48 26.51,-42.49z"/>
  <path class="fil2" d="M419.1 459.72c4.88,0 8.83,-3.79 8.83,-8.46 0,-4.68 -3.95,-8.47 -8.83,-8.47 -4.88,0 -8.84,3.79 -8.84,8.47 0,4.67 3.96,8.46 8.84,8.46z"/>
  <path class="fil2" d="M419.1 284.12c4.88,0 8.83,-3.79 8.83,-8.46 0,-4.67 -3.95,-8.46 -8.83,-8.46 -4.88,0 -8.84,3.79 -8.84,8.46 0,4.67 3.96,8.46 8.84,8.46z"/>
  <text x="175.5" y="402.89" class="fil3 fnt0">L</text>
  <text x="245.5" y="402.89" class="fil3 fnt0">L</text>
  <text x="315.5" y="402.89" class="fil2 fnt0">A</text>
  <text x="385.5" y="402.89" class="fil4 fnt0">V</text>
  <text x="455.5" y="402.89" class="fil2 fnt0">E</text>
  <text x="525.5" y="402.89" class="fil4 fnt0">R</text>
  <text x="595.5" y="402.89" class="fil2 fnt0">O</text>
 </g>
</svg>
